<?xml version="1.0" encoding="UTF-8" standalone="no"?>
<!DOCTYPE svg PUBLIC "-//W3C//DTD SVG 1.1//EN" "http://www.w3.org/Graphics/SVG/1.1/DTD/svg11.dtd">
<svg width="100%" height="100%" viewBox="0 0 512 512" version="1.1" xmlns="http://www.w3.org/2000/svg" xmlns:xlink="http://www.w3.org/1999/xlink" xml:space="preserve" style="fill-rule:evenodd;clip-rule:evenodd;stroke-linejoin:round;stroke-miterlimit:1.41421;">
    <rect x="116.345" y="98.725" width="259.526" height="271.649" style="fill:rgb(103,33,60);"/>
    <path d="M358.746,478.479C354.246,482.975 348.145,485.5 341.784,485.5C308.762,485.5 202.907,485.5 170.083,485.5C163.801,485.5 157.769,483.037 153.283,478.64C130.062,455.879 55.713,383.004 32.201,359.957C27.595,355.444 25,349.266 25,342.818C25,309.703 25,204.517 25,171.598C25,165.229 27.532,159.121 32.038,154.619C55.359,131.321 129.947,56.805 153.254,33.521C157.754,29.025 163.855,26.5 170.216,26.5C202.903,26.5 306.867,26.5 339.362,26.5C345.646,26.5 351.679,28.964 356.165,33.363C379.719,56.458 455.957,131.212 479.803,154.593C484.406,159.107 487,165.283 487,171.73C487,204.505 487,307.817 487,340.402C487,346.771 484.468,352.879 479.962,357.381C456.641,380.679 382.053,455.195 358.746,478.479ZM254.199,303.036C267.997,303.036 279.199,314.238 279.199,328.036C279.199,341.834 267.997,353.036 254.199,353.036C240.401,353.036 229.199,341.834 229.199,328.036C229.199,314.238 240.401,303.036 254.199,303.036ZM229.199,128.5C233.103,111.937 276.351,111.936 280.249,128.5C286.249,154 271.208,256.01 265.2,281.5C263.594,288.313 245.803,288.254 244.2,281.44C238.2,255.94 223.191,153.99 229.199,128.5Z" style="fill:rgb(205,25,69);"/>
</svg>
