<?xml version="1.0" encoding="UTF-8" standalone="no"?>
<!DOCTYPE svg PUBLIC "-//W3C//DTD SVG 1.1//EN" "http://www.w3.org/Graphics/SVG/1.1/DTD/svg11.dtd">
<svg width="100%" height="100%" viewBox="0 0 512 512" version="1.1" xmlns="http://www.w3.org/2000/svg" xmlns:xlink="http://www.w3.org/1999/xlink" xml:space="preserve" style="fill-rule:evenodd;clip-rule:evenodd;stroke-linejoin:round;stroke-miterlimit:1.41421;">
    <g>
        <g transform="matrix(1.14599,0,0,1,0,0.304662)">
            <path d="M171.039,241.96C171.039,239.75 169.477,237.96 167.549,237.96C143.225,237.96 0,237.96 0,237.96L0,273.431C0,273.431 143.225,273.431 167.549,273.431C169.477,273.431 171.039,271.64 171.039,269.431C171.039,262.605 171.039,248.785 171.039,241.96Z" style="fill:rgb(52,64,73);"/>
        </g>
        <g transform="matrix(1.14594,0,0,0.996922,315.395,1.03707)">
            <path d="M171.039,237.96C171.039,237.96 27.815,237.96 3.491,237.96C1.563,237.96 0,239.756 0,241.972C0,248.798 0,262.593 0,269.419C0,271.635 1.563,273.431 3.491,273.431C27.815,273.431 171.039,273.431 171.039,273.431L171.039,237.96Z" style="fill:rgb(52,64,73);"/>
        </g>
    </g>
    <g transform="matrix(1,0,0,1,-1.57435,-256)">
        <g transform="matrix(-0.66144,0.662158,-0.70749,-0.706723,461.028,438.832)">
            <rect x="15.718" y="237.96" width="155.321" height="35.472" style="fill:rgb(63,73,89);"/>
        </g>
        <g transform="matrix(-0.662596,-0.661877,0.706723,-0.70749,177.272,562.657)">
            <rect x="15.718" y="237.96" width="155.321" height="35.472" style="fill:rgb(63,73,89);"/>
        </g>
        <g transform="matrix(-0.0012033,-1.2619,1.00246,-0.000955909,1.08499,518.881)">
            <rect x="15.718" y="237.96" width="155.321" height="35.472" style="fill:rgb(63,73,89);"/>
        </g>
    </g>
    <g transform="matrix(1,0,0,1,-0.302561,256)">
        <g transform="matrix(0.661219,-0.662379,0.707726,0.706487,52.2168,73.2357)">
            <rect x="15.718" y="237.96" width="155.321" height="35.472" style="fill:rgb(63,73,89);"/>
        </g>
        <g transform="matrix(0.662817,0.661656,-0.706487,0.707726,335.932,-50.6835)">
            <rect x="15.718" y="237.96" width="155.321" height="35.472" style="fill:rgb(63,73,89);"/>
        </g>
        <g transform="matrix(0.00162435,1.2619,-1.00246,0.00129039,512.133,-6.96615)">
            <rect x="15.718" y="237.96" width="155.321" height="35.472" style="fill:rgb(63,73,89);"/>
        </g>
    </g>
</svg>
