<?xml version="1.0" encoding="UTF-8" standalone="no"?>
<!DOCTYPE svg PUBLIC "-//W3C//DTD SVG 1.1//EN" "http://www.w3.org/Graphics/SVG/1.1/DTD/svg11.dtd">
<svg width="100%" height="100%" viewBox="0 0 512 512" version="1.1" xmlns="http://www.w3.org/2000/svg" xmlns:xlink="http://www.w3.org/1999/xlink" xml:space="preserve" style="fill-rule:evenodd;clip-rule:evenodd;stroke-linejoin:round;stroke-miterlimit:1.41421;">
    <g transform="matrix(0.996843,0,0,0.996843,143.004,0.301084)">
        <rect x="64.71" y="95.36" width="95.975" height="32.101" style="fill:rgb(89,112,151);"/>
    </g>
    <g transform="matrix(0.996843,0,0,0.996843,288.204,0.301084)">
        <rect x="64.71" y="95.36" width="95.975" height="32.101" style="fill:rgb(61,69,107);"/>
    </g>
    <g transform="matrix(0.996843,0,0,0.996843,288.204,256.401)">
        <rect x="64.71" y="95.36" width="95.975" height="32.101" style="fill:rgb(61,69,107);"/>
    </g>
    <g transform="matrix(2.10471,0,0,0.996434,-40.7962,258.44)">
        <rect x="64.71" y="95.36" width="95.975" height="32.101" style="fill:rgb(89,112,151);"/>
    </g>
    <g transform="matrix(-0.000651221,-1.89213,0.996434,-0.000342947,0.483153,507.919)">
        <rect x="64.71" y="95.36" width="95.975" height="32.101" style="fill:rgb(89,112,151);"/>
    </g>
    <path d="M133.264,196.4L64.31,127.36L159.982,127.36L159.982,95.395L196.399,131.868L196.399,196.4L133.264,196.4Z" style="fill:rgb(89,112,151);fill-opacity:0.415686;"/>
    <g transform="matrix(1,0,0,1,288.4,0)">
        <path d="M133.264,196.4L64.31,127.36L159.982,127.36L159.982,95.395L196.399,131.868L196.399,196.4L133.264,196.4Z" style="fill:rgb(89,112,151);fill-opacity:0.415686;"/>
    </g>
    <g transform="matrix(1,0,0,1,288.3,256.1)">
        <path d="M133.264,196.4L64.31,127.36L159.982,127.36L159.982,95.395L196.399,131.868L196.399,196.4L133.264,196.4Z" style="fill:rgb(89,112,151);fill-opacity:0.415686;"/>
    </g>
    <g transform="matrix(1,0,0,1,-287.621,-257.5)">
        <path d="M499.175,257.5C502.369,257.5 505.432,258.769 507.691,261.027C509.949,263.286 511.218,266.349 511.218,269.543C511.218,307.22 511.218,422.867 511.218,465.5C511.218,474.337 504.055,481.5 495.218,481.5C454.046,481.5 344.793,481.5 303.621,481.5C294.784,481.5 287.621,474.337 287.621,465.5C287.621,424.267 287.621,314.733 287.621,273.5C287.621,264.663 294.784,257.5 303.621,257.5C346.192,257.5 461.552,257.5 499.175,257.5ZM478.778,289.472L319.364,289.472L319.364,449.472L478.778,449.472L478.778,289.472Z" style="fill:rgb(61,69,107);"/>
    </g>
    <g transform="matrix(1,0,0,1,-0.580571,-257.5)">
        <path d="M495.218,257.5C504.055,257.5 511.218,264.663 511.218,273.5C511.218,314.733 511.218,424.267 511.218,465.5C511.218,474.337 504.055,481.5 495.218,481.5C454.046,481.5 344.793,481.5 303.621,481.5C294.784,481.5 287.621,474.337 287.621,465.5C287.621,424.267 287.621,314.733 287.621,273.5C287.621,264.663 294.784,257.5 303.621,257.5C344.793,257.5 454.046,257.5 495.218,257.5ZM478.778,289.472L319.364,289.472L319.364,449.472L478.778,449.472L478.778,289.472Z" style="fill:rgb(61,69,107);"/>
    </g>
    <path d="M495.218,257.5C504.055,257.5 511.218,264.663 511.218,273.5C511.218,314.733 511.218,424.267 511.218,465.5C511.218,474.337 504.055,481.5 495.218,481.5C454.046,481.5 344.793,481.5 303.621,481.5C294.784,481.5 287.621,474.337 287.621,465.5C287.621,424.267 287.621,314.733 287.621,273.5C287.621,264.663 294.784,257.5 303.621,257.5C344.793,257.5 454.046,257.5 495.218,257.5ZM478.778,289.472L319.364,289.472L319.364,449.472L478.778,449.472L478.778,289.472Z" style="fill:rgb(61,69,107);"/>
    <g transform="matrix(0.996843,0,0,0.996843,-0.195691,0.301084)">
        <rect x="64.71" y="95.36" width="95.975" height="32.101" style="fill:rgb(61,69,107);"/>
    </g>
</svg>
