<?xml version="1.0" encoding="UTF-8" standalone="no"?>
<!DOCTYPE svg PUBLIC "-//W3C//DTD SVG 1.1//EN" "http://www.w3.org/Graphics/SVG/1.1/DTD/svg11.dtd">
<svg width="100%" height="100%" viewBox="0 0 512 512" version="1.1" xmlns="http://www.w3.org/2000/svg" xmlns:xlink="http://www.w3.org/1999/xlink" xml:space="preserve" style="fill-rule:evenodd;clip-rule:evenodd;stroke-linejoin:round;stroke-miterlimit:1.41421;">
    <path d="M512,256C512,114.615 397.385,0 256,0C256,0 256,0 256,0C114.615,0 0,114.615 0,256C0,256 0,256 0,256C0,397.385 114.615,512 256,512C256,512 256,512 256,512C397.385,512 512,397.385 512,256C512,256 512,256 512,256Z" style="fill:rgb(30,81,115);"/>
    <clipPath id="_clip1">
        <path d="M512,256C512,114.615 397.385,0 256,0C256,0 256,0 256,0C114.615,0 0,114.615 0,256C0,256 0,256 0,256C0,397.385 114.615,512 256,512C256,512 256,512 256,512C397.385,512 512,397.385 512,256C512,256 512,256 512,256Z"/>
    </clipPath>
    <g clip-path="url(#_clip1)">
        <g transform="matrix(0.663826,-0.662757,0.787207,0.788476,-174.754,157.247)">
            <path d="M429.167,281.849L316.895,336.28L311.902,370.096L239.831,420.892L151.071,351.665L42.521,401.652L44.784,625.101L428.773,625.101L429.167,281.849Z" style="fill:rgb(23,47,62);fill-opacity:0.596078;"/>
        </g>
        <g transform="matrix(1.36898,0,0,1.33784,-69.7857,142.678)">
            <path d="M287.514,50.865L294.138,56.625C298.746,60.465 301.05,65.265 301.05,71.025L301.05,125.745C301.05,131.505 299.13,136.305 295.29,140.145L289.53,145.905C286.074,149.745 281.85,151.665 276.858,151.665L198.798,151.665L198.798,131.505L262.746,131.505C266.202,131.505 268.41,131.361 269.37,131.073C270.33,130.785 271.674,129.969 273.402,128.625C275.13,127.281 276.138,126.177 276.426,125.313C276.714,124.449 276.858,122.577 276.858,119.697L276.858,74.193C276.858,69.585 274.746,65.553 270.522,62.097C266.874,58.833 262.65,57.201 257.85,57.201L214.65,57.201L214.65,38.769L254.106,38.769C258.522,38.769 262.746,37.233 266.778,34.161C269.658,31.857 271.482,30.033 272.25,28.689C273.018,27.345 273.402,25.041 273.402,21.777L273.402,-17.967C273.402,-20.847 273.258,-22.719 272.97,-23.583C272.682,-24.447 271.674,-25.551 269.946,-26.895C268.218,-28.239 266.874,-29.055 265.914,-29.343C264.954,-29.631 262.746,-29.775 259.29,-29.775L213.21,-29.775C209.754,-29.775 207.546,-29.631 206.586,-29.343C205.626,-29.055 204.282,-28.239 202.554,-26.895C200.826,-25.551 199.818,-24.447 199.53,-23.583C199.242,-22.719 199.098,-20.847 199.098,-17.967L199.098,226.545L174.906,226.545L174.906,-24.015C174.906,-29.775 177.21,-34.575 181.818,-38.415L188.73,-44.175C193.338,-48.015 197.946,-49.935 202.554,-49.935L269.946,-49.935C274.554,-49.935 279.162,-48.015 283.77,-44.175L290.682,-38.415C295.29,-34.575 297.594,-29.775 297.594,-24.015L297.594,24.945C297.594,30.705 295.29,35.505 290.682,39.345L287.514,41.937C284.442,44.433 281.754,45.681 279.45,45.681L279.45,47.121C281.754,47.121 284.442,48.369 287.514,50.865Z" style="fill:rgb(215,161,40);fill-rule:nonzero;"/>
        </g>
    </g>
</svg>
