<?xml version="1.0" encoding="UTF-8" standalone="no"?>
<!DOCTYPE svg PUBLIC "-//W3C//DTD SVG 1.1//EN" "http://www.w3.org/Graphics/SVG/1.1/DTD/svg11.dtd">
<svg width="100%" height="100%" viewBox="0 0 512 512" version="1.1" xmlns="http://www.w3.org/2000/svg" xmlns:xlink="http://www.w3.org/1999/xlink" xml:space="preserve" style="fill-rule:evenodd;clip-rule:evenodd;stroke-linejoin:round;stroke-miterlimit:1.41421;">
    <g>
        <path d="M64.514,285.61L182.447,285.709L182.42,317.696L64.525,317.597L64.556,407.569L298.439,407.765L298.412,439.752L33.879,439.53L32.58,439.53L32.499,203.85L64.486,203.839L64.514,285.61Z" style="fill:rgb(89,112,151);"/>
        <path d="M133.264,196.4L64.31,127.36L159.982,127.36L159.982,95.395L196.399,131.868L173.93,196.067L133.264,196.4Z" style="fill:rgb(89,112,151);fill-opacity:0.415686;"/>
        <g transform="matrix(1,0,0,1,160,130)">
            <path d="M133.264,196.4L64.31,127.36L159.982,127.36L159.982,95.395L196.399,131.868L133.773,132.604L133.264,196.4Z" style="fill:rgb(89,112,151);fill-opacity:0.415686;"/>
        </g>
        <g transform="matrix(1,0,0,1,287.4,257.6)">
            <path d="M133.264,196.4L64.31,127.36L159.982,127.36L159.982,95.395L196.399,131.868L196.399,196.4L133.264,196.4Z" style="fill:rgb(89,112,151);fill-opacity:0.415686;"/>
        </g>
        <g transform="matrix(0.996843,0,0,0.996843,287.204,257.901)">
            <rect x="64.71" y="95.36" width="95.975" height="32.101" style="fill:rgb(61,69,107);"/>
        </g>
        <g transform="matrix(0.996843,0,0,0.996843,-0.195691,0.301084)">
            <rect x="64.71" y="95.36" width="95.975" height="32.101" style="fill:rgb(61,69,107);"/>
        </g>
        <g transform="matrix(0.996843,0,0,0.996843,159.804,130.301)">
            <rect x="64.71" y="95.36" width="95.975" height="32.101" style="fill:rgb(61,69,107);"/>
        </g>
        <path d="M191.743,161.972L191.743,321.972L287.4,321.972L287.4,273.6C287.4,264.763 294.563,257.6 303.4,257.6L351.157,257.6L351.157,161.972L191.743,161.972ZM319.143,289.572L319.143,449.572L478.557,449.572L478.557,289.572L319.143,289.572ZM16,224C7.163,224 0,216.837 0,208C0,166.767 0,57.233 0,16C0,7.163 7.163,0 16,0C58.571,0 173.931,0 211.554,0C214.748,0 217.812,1.269 220.07,3.527C222.329,5.786 223.597,8.849 223.597,12.043L223.597,130L371.554,130C374.748,130 377.812,131.269 380.07,133.527C382.329,135.786 383.597,138.849 383.597,142.043L383.597,257.6L498.954,257.6C502.148,257.6 505.212,258.869 507.47,261.127C509.729,263.386 510.997,266.449 510.997,269.643C510.997,307.32 510.997,422.967 510.997,465.6C510.997,474.437 503.834,481.6 494.997,481.6C453.826,481.6 344.572,481.6 303.4,481.6C294.563,481.6 287.4,474.437 287.4,465.6L287.4,354L176,354C167.163,354 160,346.837 160,338L160,224L16,224ZM160,146C160,137.163 167.163,130 176,130L191.157,130L191.157,31.972L31.743,31.972L31.743,191.972L160,191.972L160,146Z" style="fill:rgb(61,69,107);"/>
    </g>
</svg>
