<?xml version="1.0" encoding="UTF-8" standalone="no"?>
<!DOCTYPE svg PUBLIC "-//W3C//DTD SVG 1.1//EN" "http://www.w3.org/Graphics/SVG/1.1/DTD/svg11.dtd">
<svg width="100%" height="100%" viewBox="0 0 512 512" version="1.1" xmlns="http://www.w3.org/2000/svg" xmlns:xlink="http://www.w3.org/1999/xlink" xml:space="preserve" style="fill-rule:evenodd;clip-rule:evenodd;stroke-linecap:round;stroke-linejoin:round;stroke-miterlimit:1.5;">
    <g transform="matrix(1,0,0,1,-16.0184,15.9235)">
        <g transform="matrix(1,0,0,1,16.0184,-15.9235)">
            <path d="M444.13,138.706L353.12,42.739L75.466,42.739L75.466,479.541L444.13,479.541L444.13,138.706Z" style="fill:rgb(220,235,194);"/>
        </g>
        <path d="M377.262,0L480.188,105.308L480.033,480.153L63.849,480.153L63.849,0L377.262,0ZM363.667,31.943L96.132,31.943L96.132,447.541L447.593,447.541L447.593,117.762L363.667,31.943Z" style="fill:rgb(63,73,89);"/>
        <g transform="matrix(1,0,0,1,-3.89153,0)">
            <path d="M353.892,118.449L353.892,8.903L385.892,8.919L385.892,89L464.04,89L464.04,119.449L353.892,118.449Z" style="fill:rgb(63,73,89);"/>
        </g>
    </g>
    <g transform="matrix(0.834892,0.550414,-0.550414,0.834892,170.132,-113.554)">
        <g transform="matrix(0.993599,5.55112e-17,0,1,61.4606,-3.54243)">
            <ellipse cx="214.252" cy="230.347" rx="64.412" ry="64" style="fill:none;stroke:rgb(87,105,124);stroke-width:20.06px;"/>
        </g>
        <path d="M289.729,400.97C289.779,401.506 289.805,402.048 289.805,402.597C289.805,411.63 282.881,418.963 274.352,418.963C265.823,418.963 258.899,411.63 258.899,402.597C258.899,402.133 258.917,401.674 258.953,401.22L258.878,401.22L258.954,308.842C263.933,309.647 269.081,310.07 274.349,310.07C279.639,310.07 284.807,309.644 289.805,308.832L289.729,400.97Z" style="fill:rgb(63,73,89);stroke:rgb(63,73,89);stroke-width:11px;"/>
    </g>
</svg>
