<?xml version="1.0" encoding="UTF-8" standalone="no"?>
<!DOCTYPE svg PUBLIC "-//W3C//DTD SVG 1.1//EN" "http://www.w3.org/Graphics/SVG/1.1/DTD/svg11.dtd">
<svg width="100%" height="100%" viewBox="0 0 512 512" version="1.1" xmlns="http://www.w3.org/2000/svg" xmlns:xlink="http://www.w3.org/1999/xlink" xml:space="preserve" style="fill-rule:evenodd;clip-rule:evenodd;stroke-linejoin:round;stroke-miterlimit:1.41421;">
    <g transform="matrix(1.07708,0,0,1.04383,-20.3611,-12.6718)">
        <ellipse cx="256.583" cy="257.391" rx="194.971" ry="201.183" style="fill:rgb(205,25,69);"/>
    </g>
    <path d="M256.202,215.919L335.427,136.693C346.355,125.765 364.098,125.766 375.025,136.693C385.953,147.62 385.953,165.363 375.025,176.291L295.833,255.483L375.091,334.61C386.028,345.529 386.043,363.272 375.125,374.208C364.206,385.144 346.463,385.159 335.527,374.241L256.235,295.081L177.009,374.307C166.082,385.235 148.338,385.235 137.411,374.307C126.484,363.38 126.484,345.637 137.411,334.709L216.604,255.517L137.345,176.39C126.408,165.472 126.393,147.728 137.312,136.792C148.23,125.856 165.973,125.841 176.91,136.759L256.202,215.919Z" style="fill:white;"/>
</svg>
