<?xml version="1.0" encoding="UTF-8" standalone="no"?>
<!DOCTYPE svg PUBLIC "-//W3C//DTD SVG 1.1//EN" "http://www.w3.org/Graphics/SVG/1.1/DTD/svg11.dtd">
<svg width="100%" height="100%" viewBox="0 0 512 512" version="1.1" xmlns="http://www.w3.org/2000/svg" xmlns:xlink="http://www.w3.org/1999/xlink" xml:space="preserve" style="fill-rule:evenodd;clip-rule:evenodd;stroke-linejoin:round;stroke-miterlimit:1.41421;">
    <path d="M417.247,448.742L95.247,448.742C86.76,448.742 78.62,445.371 72.619,439.37C66.618,433.369 63.247,425.229 63.247,416.742C63.247,344.094 63.247,167.391 63.247,94.742C63.247,86.255 66.618,78.116 72.619,72.115C78.62,66.114 86.76,62.742 95.247,62.742C167.895,62.742 344.598,62.742 417.247,62.742C425.734,62.742 433.873,66.114 439.874,72.115C445.875,78.116 449.247,86.255 449.247,94.742C449.247,167.391 449.247,344.094 449.247,416.742C449.247,425.229 445.875,433.369 439.874,439.37C433.893,445.351 425.788,448.72 417.247,448.742Z" style="fill:rgb(205,25,69);"/>
    <clipPath id="_clip1">
        <path d="M417.247,448.742L95.247,448.742C86.76,448.742 78.62,445.371 72.619,439.37C66.618,433.369 63.247,425.229 63.247,416.742C63.247,344.094 63.247,167.391 63.247,94.742C63.247,86.255 66.618,78.116 72.619,72.115C78.62,66.114 86.76,62.742 95.247,62.742C167.895,62.742 344.598,62.742 417.247,62.742C425.734,62.742 433.873,66.114 439.874,72.115C445.875,78.116 449.247,86.255 449.247,94.742C449.247,167.391 449.247,344.094 449.247,416.742C449.247,425.229 445.875,433.369 439.874,439.37C433.893,445.351 425.788,448.72 417.247,448.742Z"/>
    </clipPath>
    <g clip-path="url(#_clip1)">
        <g transform="matrix(0.836951,-0.838029,1.6406,1.63849,-267.93,102.086)">
            <path d="M324.165,209.878L324.165,318.63L117.008,318.63L117.008,208.598C117.729,211.598 120.413,214.419 124.661,216.592L201.627,255.957C206.783,258.566 213.609,260.003 220.727,260.006C227.893,260.008 234.767,258.556 239.837,255.97C261.189,245.077 295.55,227.548 316.902,216.655C320.569,214.784 323.075,212.431 324.165,209.878Z" style="fill-opacity:0.411765;"/>
        </g>
    </g>
    <g transform="matrix(0.5,0,0,0.5,128.123,128.129)">
        <path d="M385.247,448.742L127.247,448.742C110.273,448.742 93.994,442 81.992,429.997C69.989,417.995 63.247,401.716 63.247,384.742C63.247,313.259 63.247,198.226 63.247,126.742C63.247,109.769 69.989,93.49 81.992,81.488C93.994,69.485 110.273,62.742 127.247,62.742C198.73,62.742 313.763,62.742 385.247,62.742C402.22,62.742 418.499,69.485 430.501,81.488C442.504,93.49 449.247,109.769 449.247,126.742C449.247,198.226 449.247,313.259 449.247,384.742C449.247,401.716 442.504,417.995 430.501,429.997C418.539,441.959 402.329,448.697 385.247,448.742Z" style="fill:rgb(212,66,97);"/>
    </g>
</svg>
