<?xml version="1.0" encoding="UTF-8" standalone="no"?>
<!DOCTYPE svg PUBLIC "-//W3C//DTD SVG 1.1//EN" "http://www.w3.org/Graphics/SVG/1.1/DTD/svg11.dtd">
<svg width="100%" height="100%" viewBox="0 0 512 512" version="1.1" xmlns="http://www.w3.org/2000/svg" xmlns:xlink="http://www.w3.org/1999/xlink" xml:space="preserve" style="fill-rule:evenodd;clip-rule:evenodd;stroke-linejoin:round;stroke-miterlimit:1.41421;">
    <g transform="matrix(2.14672,0,0,2.14286,16,16)">
        <g transform="matrix(0.20962,-0.209925,0.402274,0.403138,-18.9359,77.4289)">
            <path d="M396.351,268.994L62.913,141.667L66.156,363.012L218.095,440.875L395.841,344.858L396.351,268.994Z" style="fill:rgb(89,112,151);fill-opacity:0.407843;"/>
        </g>
        <g transform="matrix(1.26194,0,0,0.581492,-30.4189,47.2154)">
            <rect x="64.71" y="95.36" width="95.975" height="32.101" style="fill:rgb(61,69,107);"/>
        </g>
        <g transform="matrix(0.329567,0.329806,-0.297277,0.298133,150.42,-18.6071)">
            <path d="M406.653,284.812L295.68,167.136L61.349,166.752L245.221,370.274L329.327,370.266L406.653,284.812Z" style="fill:rgb(89,112,151);fill-opacity:0.407843;"/>
        </g>
        <g transform="matrix(-0.000995945,-1.26422,0.580446,-0.000458921,47.2428,254.525)">
            <rect x="64.71" y="95.36" width="95.975" height="32.101" style="fill:rgb(61,69,107);"/>
        </g>
        <g transform="matrix(1,0,0,1,-287.621,-257.5)">
            <path d="M505.608,257.5C507.096,257.5 508.523,258.092 509.575,259.146C510.627,260.2 511.218,261.63 511.218,263.12C511.218,293.629 511.218,439.264 511.218,474.033C511.218,476.014 510.433,477.913 509.035,479.313C507.637,480.713 505.742,481.5 503.765,481.5C469.712,481.5 329.126,481.5 295.074,481.5C293.097,481.5 291.201,480.713 289.804,479.313C288.406,477.913 287.621,476.014 287.621,474.033C287.621,439.92 287.621,299.08 287.621,264.967C287.621,262.986 288.406,261.087 289.804,259.687C291.201,258.287 293.097,257.5 295.074,257.5C329.781,257.5 475.154,257.5 505.608,257.5ZM478.778,289.472L319.364,289.472L319.364,449.472L478.778,449.472L478.778,289.472Z" style="fill:rgb(61,69,107);"/>
        </g>
    </g>
</svg>
