<?xml version="1.0" encoding="UTF-8" standalone="no"?>
<!DOCTYPE svg PUBLIC "-//W3C//DTD SVG 1.1//EN" "http://www.w3.org/Graphics/SVG/1.1/DTD/svg11.dtd">
<svg width="100%" height="100%" viewBox="0 0 512 512" version="1.1" xmlns="http://www.w3.org/2000/svg" xmlns:xlink="http://www.w3.org/1999/xlink" xml:space="preserve" style="fill-rule:evenodd;clip-rule:evenodd;stroke-linejoin:round;stroke-miterlimit:1.41421;">
    <path d="M0.124,439.103L0.186,293.587L73.083,293.618L73.021,439.103L218.475,439.103L218.475,512L0.093,512L0.093,439.103L0.124,439.103ZM438.948,439.103L439.01,293.556L511.907,293.587L511.814,511.969L511.814,512L293.432,512L293.432,439.103L438.948,439.103ZM146.456,145.587L366.114,145.587L366.114,365.616L146.456,365.616L146.456,145.587ZM293.618,0.031L512,0.031L512,72.928L511.969,72.928L511.907,218.444L439.01,218.413L439.072,72.928L293.618,72.928L293.618,0.031ZM0,0L218.382,0L218.382,72.897L72.959,72.897L72.897,218.413L0,218.382L0.062,72.897L0,72.897L0,0Z" style="fill:rgb(111,135,180);"/>
</svg>
