<?xml version="1.0" encoding="UTF-8" standalone="no"?>
<!DOCTYPE svg PUBLIC "-//W3C//DTD SVG 1.1//EN" "http://www.w3.org/Graphics/SVG/1.1/DTD/svg11.dtd">
<svg width="100%" height="100%" viewBox="0 0 512 512" version="1.1" xmlns="http://www.w3.org/2000/svg" xmlns:xlink="http://www.w3.org/1999/xlink" xml:space="preserve" style="fill-rule:evenodd;clip-rule:evenodd;stroke-linejoin:round;stroke-miterlimit:1.41421;">
    <rect x="204.337" y="118.194" width="106.141" height="271.469" style="fill:rgb(61,51,52);fill-opacity:0.952941;"/>
    <path d="M198.757,74.932C209.598,53.25 231.759,39.554 256,39.554C280.241,39.554 302.402,53.25 313.243,74.932C359.201,166.848 422.904,294.253 465.689,379.824C475.609,399.663 474.549,423.224 462.887,442.093C451.226,460.961 430.627,472.446 408.446,472.446C319.646,472.446 192.354,472.446 103.554,472.446C81.373,472.446 60.774,460.961 49.113,442.093C37.451,423.224 36.391,399.663 46.311,379.824C89.096,294.253 152.799,166.848 198.757,74.932ZM256.5,328.146C270.574,328.146 282,339.572 282,353.646C282,367.72 270.574,379.146 256.5,379.146C242.426,379.146 231,367.72 231,353.646C231,339.572 242.426,328.146 256.5,328.146ZM272.001,298.177C279.001,272.677 289,170.677 282,145.177C277.489,128.746 234.51,128.746 230,145.177C223,170.677 233.001,272.677 240.001,298.177C242.776,308.288 269.225,308.288 272.001,298.177Z" style="fill:rgb(221,195,115);"/>
</svg>
